<svg version="1.2" xmlns="http://www.w3.org/2000/svg" viewBox="0 0 300 300" width="300" height="300">
	<title>default-svg</title>
	<defs>
		<linearGradient id="g1" x2="1" gradientUnits="userSpaceOnUse" gradientTransform="matrix(303.961,0,0,298.702,-3.301,0)">
			<stop offset="0" stop-color="#050922"/>
			<stop offset="1" stop-color="#6ee6c7"/>
		</linearGradient>
	</defs>
	<style>
		.s0 { fill: url(#g1) } 
	</style>
	<g id="8e5d1b85-f830-4b6f-b591-e6c6883503cd">
		<path id="Layer 128" fill-rule="evenodd" class="s0" d="m255.1 32.3q0.7-1.4 1.9-2.3 1.1-0.9 2.5-1.3 1.4-0.4 2.8-0.2 1.4 0.2 2.7 0.9 4.7 2.9 9.1 6.2 4.4 3.3 8.6 7 4.1 3.7 8 7.7 3.8 4 7.3 8.4c1.2 1.6 1.9 3.6 1.7 5.6-0.1 2.1-1 4-2.5 5.3-1.5 1.3-3.3 2-5.3 1.8-1.9-0.1-3.6-1.1-4.9-2.6q-3.1-3.9-6.5-7.5-3.4-3.6-7.1-6.8-3.7-3.3-7.6-6.2-3.9-2.9-8-5.5-1.3-0.8-2.2-2-0.8-1.2-1.2-2.7-0.4-1.5-0.2-3 0.2-1.5 0.9-2.8zm33.7 67c3.5 7.3 6.3 15 8.3 22.9 2 8 3.1 16.1 3.5 24.4 0.3 8.2-0.2 16.4-1.6 24.5-2.8 17.3-8.4 34-16.5 49.3-8.1 15.3-18.6 29.1-31.1 40.6-12.4 11.5-26.6 20.7-41.9 27.1-15.4 6.4-31.6 10-48.1 10.6-7.3 0.1-14.6-0.5-21.8-2-7.2-1.5-14.2-3.8-20.9-6.8-6.8-3.1-13.2-6.9-19.1-11.4-6-4.5-11.5-9.7-16.5-15.5q-2.6-3.1-5-6.5-2.4-3.4-4.5-6.9-2.1-3.6-4-7.3-1.8-3.8-3.4-7.7h-62.3c-1.9 0-3.7-0.8-5.1-2.2-1.3-1.5-2.1-3.4-2.1-5.5 0-2 0.8-4 2.1-5.4 1.4-1.5 3.2-2.3 5.1-2.3h118c1.9 0 3.7 0.8 5.1 2.3 1.3 1.4 2.1 3.4 2.1 5.4 0 2.1-0.8 4-2.1 5.5-1.4 1.4-3.2 2.2-5.1 2.2h-39.6q1.2 2.5 2.5 4.8 1.3 2.4 2.7 4.6 1.5 2.3 3.1 4.5 1.6 2.1 3.3 4.2c4.2 4.9 9 9.4 14.2 13.2 5.1 3.9 10.6 7.2 16.5 9.8 5.8 2.7 11.8 4.6 18 5.9 6.2 1.2 12.5 1.8 18.8 1.6 14.8-0.5 29.3-3.7 43.1-9.4 13.7-5.8 26.5-14 37.6-24.4 11.2-10.3 20.6-22.6 27.8-36.3 7.3-13.7 12.3-28.7 14.9-44.2 1.1-7 1.6-14.2 1.3-21.3-0.2-7.1-1.2-14.1-2.9-21-1.7-6.9-4.1-13.5-7.1-19.9-3.1-6.3-6.8-12.2-11-17.7-4.3-5.2-9.1-9.9-14.4-14-5.2-4.1-10.8-7.6-16.8-10.4-5.9-2.8-12.1-4.9-18.5-6.2-6.4-1.4-12.9-1.9-19.4-1.8-7.3 0.1-14.6 1-21.7 2.5-7.2 1.5-14.3 3.6-21.1 6.5-6.8 2.8-13.4 6.3-19.6 10.4-6.2 4-12.1 8.7-17.6 13.9-0.1 0.1-0.2 0.3-0.3 0.4-0.1 0.1-0.3 0.1-0.4 0.2q-6.1 5.7-11.5 12-5.4 6.4-10 13.4-4.6 7.1-8.4 14.7-3.7 7.6-6.6 15.6c-0.6 2-2 3.6-3.7 4.5-1.8 0.9-3.8 1-5.7 0.3-1.8-0.8-3.3-2.2-4.1-4.2-0.7-1.9-0.8-4 0-6q2.9-8.1 6.6-15.7 3.7-7.7 8.2-14.9 4.5-7.2 9.8-13.8 5.2-6.6 11.1-12.5l-6.5-8.3c-1.2-1.5-1.7-3.5-1.5-5.5 0.2-2 1.1-3.8 2.5-5.1 1.4-1.3 3.3-1.9 5.1-1.8 1.9 0.1 3.6 1 4.9 2.5l6.4 8c5.9-5.1 12.2-9.7 18.8-13.7 6.6-4 13.5-7.4 20.7-10.1 7.1-2.8 14.5-4.9 22-6.3 7.4-1.5 15-2.3 22.6-2.4 7.5-0.2 15.1 0.5 22.4 2.1 7.4 1.6 14.6 4 21.5 7.2 6.9 3.3 13.5 7.3 19.5 12.1 6.1 4.7 11.7 10.2 16.6 16.2 5 6.3 9.3 13.2 12.8 20.5zm-130.7 165.3q0.6-1.4 1.6-2.5 1-1 2.3-1.6 1.3-0.6 2.8-0.6c11.7-0.4 23.3-3 34.3-7.5 10.9-4.6 21.1-11.2 29.9-19.4 8.9-8.3 16.4-18.1 22.2-29 5.8-11 9.8-22.9 11.8-35.3 0.2-2.1 1.3-4 2.8-5.2 1.6-1.3 3.6-1.9 5.5-1.5 1.9 0.3 3.7 1.4 4.8 3.1 1.1 1.7 1.6 3.9 1.2 5.9-2.3 14.2-6.9 27.8-13.5 40.4-6.7 12.5-15.3 23.7-25.4 33.1-10.2 9.4-21.8 16.9-34.4 22.2-12.5 5.2-25.8 8.1-39.2 8.6q-1.5 0-2.8-0.6-1.3-0.6-2.3-1.7-1.1-1.1-1.6-2.5-0.6-1.4-0.6-2.9 0-1.6 0.6-3zm21.4-228.8q-1.7-0.3-3.3-1.1-1.5-0.7-2.9-1.8-1.3-1.1-2.4-2.5-1.1-1.4-1.9-3-0.8-1.6-1.3-3.3-0.4-1.8-0.5-3.6-0.1-1.9 0.2-3.7c0.4-2.3 1.1-4.5 2.2-6.5 1.1-2 2.5-3.9 4.1-5.4 1.7-1.5 3.6-2.7 5.6-3.6 2.1-0.8 4.3-1.2 6.5-1.3h32.4q1.6 0 3.3 0.3 1.7 0.4 3.2 1.1 1.5 0.8 2.9 1.9 1.3 1 2.4 2.4 1.1 1.4 1.9 3 0.8 1.6 1.2 3.3 0.5 1.8 0.6 3.6 0.1 1.8-0.2 3.6c-0.4 2.3-1.1 4.5-2.2 6.6-1 2.1-2.4 3.9-4.1 5.4-1.7 1.6-3.6 2.8-5.6 3.6-2.1 0.9-4.3 1.3-6.5 1.4h-32.3q-1.7 0-3.3-0.4zm65 77q0.4 1.5 0.3 3-0.1 1.6-0.7 3-0.7 1.4-1.8 2.4l-45.1 41.8q0.2 1 0.3 2 0.2 1 0.2 2 0 1.1 0 2.1-0.1 1-0.2 2c-0.4 2.6-1.2 5.1-2.4 7.4-1.2 2.3-2.8 4.3-4.7 6.1-1.8 1.7-4 3.1-6.3 4-2.3 0.9-4.7 1.4-7.2 1.5q-1.8 0-3.7-0.4-1.8-0.4-3.5-1.3-1.7-0.8-3.2-2-1.5-1.1-2.7-2.6-1.3-1.6-2.1-3.4-0.9-1.8-1.4-3.7-0.5-1.9-0.5-3.9-0.1-2.1 0.2-4c0.4-2.6 1.2-5.1 2.4-7.4 1.2-2.3 2.8-4.4 4.6-6.1 1.9-1.7 4-3.1 6.3-4 2.3-1 4.8-1.5 7.2-1.5q1-0.1 1.9 0 0.9 0.1 1.8 0.3 0.9 0.2 1.7 0.5 0.9 0.3 1.7 0.7l45.3-41.9q1.1-1 2.4-1.4 1.4-0.5 2.8-0.4 1.4 0.1 2.7 0.8 1.3 0.7 2.2 1.8 1 1.2 1.5 2.6zm-172.7 69.3q-0.1 1.7-0.2 3.3 0 1.7 0 3.4 0 1.6 0 3.3 0.1 1.6 0.2 3.3 0.1 1.5-0.4 3-0.5 1.4-1.4 2.6-0.9 1.2-2.2 1.8-1.3 0.7-2.8 0.8h-0.5q-1.3 0-2.6-0.5-1.3-0.5-2.3-1.6-1-1-1.6-2.3-0.6-1.3-0.7-2.8-0.1-1.8-0.2-3.6 0-1.8 0-3.5 0-1.8 0-3.6 0-1.8 0.1-3.6h-21.6c-1.9 0-3.7-0.8-5.1-2.3-1.4-1.4-2.1-3.4-2.1-5.4 0-2.1 0.7-4 2.1-5.5 1.4-1.4 3.2-2.3 5.1-2.3h69.9c1.9 0 3.7 0.9 5.1 2.3 1.3 1.5 2.1 3.4 2.1 5.5 0 2-0.8 4-2.1 5.4-1.4 1.5-3.2 2.3-5.1 2.3zm-25.4-142c-1.3-1.4-2.1-3.4-2.1-5.5 0-2 0.8-4 2.1-5.4 1.4-1.5 3.2-2.3 5.1-2.3h66.1c1.9 0 3.8 0.8 5.1 2.3 1.4 1.4 2.1 3.4 2.1 5.4 0 2.1-0.7 4.1-2.1 5.5-1.3 1.4-3.2 2.3-5.1 2.3h-66.1c-1.9 0-3.7-0.9-5.1-2.3zm21.6 228.2c1.3 1.4 2.1 3.4 2.1 5.4 0 2.1-0.8 4-2.1 5.5-1.4 1.4-3.2 2.3-5.1 2.3h-27.3c-1.9 0-3.7-0.9-5.1-2.3-1.4-1.5-2.1-3.4-2.1-5.5 0-2 0.7-4 2.1-5.4 1.4-1.5 3.2-2.3 5.1-2.3h27.3c1.9 0 3.7 0.8 5.1 2.3zm-69.2-129.2c-1.3-1.5-2.1-3.4-2.1-5.5 0-2 0.8-4 2.1-5.5 1.4-1.4 3.2-2.2 5.1-2.2h39.3c1.9 0 3.8 0.8 5.1 2.2 1.4 1.5 2.1 3.5 2.1 5.5 0 2.1-0.7 4-2.1 5.5-1.3 1.4-3.2 2.2-5.1 2.2h-39.3c-1.9 0-3.7-0.8-5.1-2.2z"/>
	</g>
</svg>